<svg xmlns="http://www.w3.org/2000/svg" xmlns:xlink="http://www.w3.org/1999/xlink" width="256" height="256" viewBox="0 0 256 256">
  <defs>
    <linearGradient id="a" data-name="未命名的渐变 17" x1="128" y1="256" x2="128" gradientUnits="userSpaceOnUse">
      <stop offset="0" stop-color="#f6d365"/>
      <stop offset="1" stop-color="#fda085"/>
    </linearGradient>
  </defs>
  <g>
    <rect width="256" height="256" rx="32" style="fill: url(#a)"/>
    <g>
      <path d="M153.12,114.32a16.37,16.37,0,0,0-6.94-2.06A21.18,21.18,0,0,0,139,113a34.27,34.27,0,0,0-11.17,5.71c-.78.57-1.52,1.16-2.24,1.77l-1,.88c-.21.16-.41.34-.62.48a17.63,17.63,0,0,1-2.27,1.48,11.64,11.64,0,0,1-3.88,1.37,15.25,15.25,0,0,1-5.86-.49,39.6,39.6,0,0,1-7.75-3,46.57,46.57,0,0,1-4.18-2.33,31.1,31.1,0,0,1-4.32-3.2,13.19,13.19,0,0,0-.58,6,23.1,23.1,0,0,0,1.43,5.84,26.65,26.65,0,0,0,7,10.14,24.43,24.43,0,0,0,12.68,6,23.8,23.8,0,0,0,7.89-.17,25.12,25.12,0,0,0,7.31-2.72,27.31,27.31,0,0,0,5.73-4.34c.42-.4.79-.82,1.18-1.23s.48-.56.73-.85l1.39-1.62c1.82-2.11,3.51-4.05,5.06-5.58a21.31,21.31,0,0,1,2.3-2,8.67,8.67,0,0,1,2.9-1.46,13.34,13.34,0,0,1,4.26-.37,50.65,50.65,0,0,1,5.34.76,15.21,15.21,0,0,0-2.42-5.39A15,15,0,0,0,153.12,114.32Z" style="fill: #fff"/>
      <path d="M198.09,71c-10.86-9.33-26.23-7-42.49-4.5-8.85,1.35-18,2.75-27.6,2.75s-18.75-1.4-27.6-2.75C84.14,64.05,68.77,61.71,57.91,71c-7.63,6.56-11.18,17.23-11.18,33.58,0,52.44,36.45,95.1,81.27,95.1s81.27-42.66,81.27-95.1C209.27,88.26,205.72,77.59,198.09,71ZM128,179.71c-33.79,0-61.27-33.69-61.27-75.1,0-12.86,2.64-17,4.22-18.41s4.5-1.92,8.15-1.92c5,0,11.56,1,18.29,2,9.13,1.4,19.48,3,30.61,3s21.48-1.58,30.61-3c11.6-1.76,22.55-3.44,26.44-.1,1.58,1.36,4.22,5.55,4.22,18.41C189.27,146,161.79,179.71,128,179.71Z" style="fill: #fff"/>
    </g>
  </g>
</svg>
